<svg xmlns="http://www.w3.org/2000/svg" width="16" height="16" viewBox="0 0 16 16"><path fill="#fff" d="M5.7 2.4c1-.6 1.2-1.2 1.3-1.8.1-.6.3-.6.7-.6h.6c.4 0 .5 0 .7.7.2.6.3 1.2 1.3 1.8 1.1.3 1.7 0 2.2-.3.6-.4.7-.2.9 0l.5.5c.2.2.3.3 0 .9-.3.6-.6 1.1-.3 2.2.6 1 1.2 1.2 1.8 1.3.6 0 .6.2.6.6v.6c0 .3 0 .5-.7.7-.6.2-1.2.3-1.8 1.3-.3 1.1 0 1.7.3 2.2.4.6.2.7 0 .9l-.5.5s-.3.3-.9 0c-.6-.3-1.1-.6-2.2-.3-1 .6-1.2 1.2-1.3 1.8 0 .6-.2.6-.6.6h-.6c-.3 0-.5 0-.7-.7-.2-.6-.3-1.2-1.3-1.8-1.1-.3-1.7 0-2.2.3-.6.4-.7.2-.9 0l-.5-.5c-.2-.2-.3-.3 0-.9.3-.6.6-1.1.3-2.2-.5-.9-1.1-1.1-1.7-1.2-.7-.1-.7-.3-.7-.7v-.6c0-.4 0-.5.7-.7.6-.2 1.2-.3 1.8-1.3.3-1.1 0-1.7-.3-2.2-.5-.5-.3-.7-.1-.9l.5-.5c.2-.2.3-.3.9 0 .6.3 1.1.6 2.2.3zm2.3 9c1.9 0 3.4-1.5 3.4-3.4s-1.5-3.4-3.4-3.4-3.4 1.5-3.4 3.4 1.5 3.4 3.4 3.4z"/></svg>