<svg height="24" viewBox="0 0 24 24" width="24" xmlns="http://www.w3.org/2000/svg"><g fill="none" fill-rule="evenodd" transform=""><path d="m0 0h24v24h-24z" opacity=".4"/><path d="m9.99997556 4c.49705624 0 .89999994.40294371.89999994.89999998v14.20000002c0 .4970563-.4029437.9-.89999994.9-.49705626 0-.89999997-.4029437-.89999997-.9v-14.20000002c0-.49705627.40294371-.89999998.89999997-.89999998zm-4 9c.49705626 0 .89999998.4029437.89999998.9v5.2c0 .4970563-.40294372.9-.89999998.9s-.89999997-.4029437-.89999997-.9v-5.2c0-.4970563.40294371-.9.89999997-.9zm8.00000004-2c.4970562 0 .8999999.4029437.8999999.9v7.2c0 .4970563-.4029437.9-.8999999.9-.4970563 0-.9-.4029437-.9-.9v-7.2c0-.4970563.4029437-.9.9-.9zm4-4c.4970562 0 .8999999.40294371.8999999.89999998v11.20000002c0 .4970563-.4029437.9-.8999999.9-.4970563 0-.9-.4029437-.9-.9v-11.20000002c0-.49705627.4029437-.89999998.9-.89999998z" fill="#828a99"/></g></svg>