<svg height="24" viewBox="0 0 24 24" width="24" xmlns="http://www.w3.org/2000/svg"><g fill="none" fill-rule="evenodd" transform=""><path d="m0 0h24v24h-24z"/><g fill="#828a99" fill-rule="nonzero"><path d="m20.7261172 11.3076738-3.2480618 2.7642855 1.2135185 4.5365102c.4990238 1.8655064-1.2159241 3.0628192-2.7879244 1.9246694l-3.9305398-2.8560826c-.2485361-.1601732-.4131097-.4393956-.4131097-.7570563 0-.4930253.3964348-.8934584.887926-.8999207l3.052074-3.2700793-3.052074 3.2700793c.0040183-.0000528.0080431-.0000793.012074-.0000793.2162416 0 .4146711.0762626.5698599.2033593l3.921794 2.8462993-1.4409425-5.386692c-.039877-.1490729.0095529-.307789.1270219-.4078587l3.9271701-3.34134339c.0317324-.02883742.0655333-.05543885.1011539-.07955539l-.6660573-.85420912-3.5 3.75 3.5-3.75.6669657.85359489c.1436087-.09697413.3167093-.15359489.5030343-.15359489.4970563 0 .9.4029437.9.9 0 .2871464-.1344745.5428846-.3438828.7076738z"/><path d="m14.353334 4.75943967c.0429765.10505222.066666.22003979.066666.34056033 0 .49705627-.4029437.9-.9.9-.1506866 0-.2927239-.03703247-.4175071-.10249286l-6.20844921 6.20844916c.06761609.1263502.10595631.2707195.10595631.4240437 0 .4970563-.40294373.9-.9.9-.23181723 0-.44316399-.0876445-.60271163-.2316049l-2.21268485-1.8849449c-1.40914217-1.200422-.81520471-3.11210235 1.03132179-3.29372216l4.12252005-.40548095 1.83210894-4.32967168c.7247928-1.71284293 2.7318017-1.72044928 3.4595816.00020126l.6235909 1.47432206zm-1.2536138 1.1366068c-.1680479-.0889064-.3045581-.2294674-.388384-.40053651l-.0041719-.00863034c-.0114575-.02402942-.021881-.04864677-.0312127-.07379449l-.6036216-1.42710977c-.1064525-.2516798-.0374455-.25194133-.1440793.0000575l-2.1563512 5.09592669c-.05709907.13493751-.18340543.2278574-.3292229.24219965l-4.95055793.48692472c-.26344883.02591218-.24283707-.04042997-.0402521.13214839l2.26801853 1.93208269-.00057856.0016437c.06974059.0661597.12889222.1433727.17464904.228833z"/><path d="m6.5363961 18.7363961c-.35147186.3514719-.92132034.3514719-1.2727922 0-.35147187-.3514719-.35147187-.9213203 0-1.2727922l13.2-13.2c.3514719-.35147187.9213203-.35147187 1.2727922 0 .3514719.35147186.3514719.92132034 0 1.2727922z"/></g></g></svg>