<svg height="24" viewBox="0 0 24 24" width="24" xmlns="http://www.w3.org/2000/svg"><g fill="none" fill-rule="evenodd" transform=""><path d="m0 0h24v24h-24z" opacity=".04"/><path d="m16.591727 12.598458v-2.2263082c0-3.47365015-1.6867117-5.4721558-4.5920303-5.4721558-2.90531862 0-4.59203029 1.99850565-4.59203029 5.4721558v2.2263082c0 .8342135-.40432203 1.4323311-1.26967716 2.2832103-.08025614.0789136-.15254355.1488012-.30149172.2921756-.85966509.8285668-1.08509438 1.1792203-1.00413679 1.4853652.09836872.3719859.27784971.4482817 1.07204797.4392773.06427375-.0007287.11502484-.001686.23540423-.0042612.18612979-.0039959.26587571-.0052966.36991892-.0052966h10.97992964c.1068601 0 .1887697.0014183.379448.0057654.1137533.0025855.1617846.0035671.2226244.0043958.7989193.0108829.9751722-.063581 1.0756523-.4412135.0810075-.3044492-.144227-.6547373-1.0043125-1.4837523-.1478143-.1422948-.2195001-.2116026-.2991779-.2899293-.8674501-.852741-1.2721688-1.4508201-1.2721688-2.2857367zm-.7852155 6.2904706c-.3541514 1.8888878-1.8447681 3.1110713-3.8106229 3.1110713-1.9697939 0-3.45849497-1.2172604-3.81121162-3.1110713h-1.67494512c-.08675355 0-.15842002.0011689-.33146158.0048839-.12357577.002651-.181277.0037394-.25354854.0045588-1.52120673.017247-2.45896695-.3813867-2.82828905-1.7779956-.32073541-1.2128759.15382822-1.951056 1.49528206-3.2439829.14843407-.1428956.21471813-.2069792.2886307-.2796554.53008621-.5212187.73145185-.8191009.73145185-.9982794v-2.2263082c0-4.40724988 2.41794175-7.2721558 6.3878994-7.2721558 3.9699576 0 6.3878994 2.86490592 6.3878994 7.2721558v2.2263082c0 .1793705.2020065.4778888.7337946 1.0006595.0734303.0721851.1392077.1357805.2864994.2775878 1.3430356 1.2945186 1.8174022 2.0322609 1.494717 3.2450032-.3732239 1.4026817-1.3089418 1.7980068-2.8352781 1.7772151-.0680815-.0009274-.1224047-.0020376-.2390573-.004695-.1767868-.0040304-.2501058-.0053-.3386102-.0053zm-3.8106229 1.3110713c.9656531 0 1.6721013-.4684743 1.956779-1.2999999h-3.9151273c.2829634.8343564.988079 1.2999999 1.9583483 1.2999999z" fill="#828a99" fill-rule="nonzero"/></g></svg>