<svg height="24" viewBox="0 0 24 24" width="24" xmlns="http://www.w3.org/2000/svg"><g fill="none" fill-rule="evenodd" transform=""><path d="m0 0h24v24h-24z" opacity=".8"/><path d="m0 0h24v24h-24z" opacity=".4"/><path d="m18.1054929 13.1c-.0036296-.0328334-.0054929-.0661991-.0054929-.1 0-.4970563.4029437-.9.9-.9s.9.4029437.9.9c0 .0338009-.0018633.0671666-.0054929.1h.0054929v1.0312583c0 2.0059172-.2088576 2.7333112-.6010486 3.4666445-.3921909.7333334-.9677152 1.3088577-1.7010486 1.7010486-.7333333.392191-1.4607273.6010486-3.4666445.6010486h-4.2625166c-2.00591716 0-2.7333112-.2088576-3.46664453-.6010486-.73333334-.3921909-1.30885763-.9677152-1.70104859-1.7010486-.39219095-.7333333-.60104858-1.4607273-.60104858-3.4666445v-4.2625166c0-2.00591716.20885763-2.7333112.60104858-3.46664453.39219096-.73333334.96771525-1.30885763 1.70104859-1.70104859.73333333-.39219095 1.46072737-.60104858 3.46664453-.60104858h1.0312583v.00549288c.0328334-.00362955.0661991-.00549288.1-.00549288.4970563 0 .9.40294373.9.9s-.4029437.9-.9.9c-.0338009 0-.0671666-.00186333-.1-.00549288v.00549288h-1.0312583c-1.55710093 0-2.08077509.10112615-2.61776659.38831234-.41965008.22443132-.73823145.54301269-.96266277.96266277-.28718619.5369915-.38831234 1.06066566-.38831234 2.61776659v4.2625166c0 1.5571009.10112615 2.0807751.38831234 2.6177666.22443132.4196501.54301269.7382314.96266277.9626628.5369915.2871862 1.06066566.3883123 2.61776659.3883123h4.2625166c1.5571009 0 2.0807751-.1011261 2.6177666-.3883123.4196501-.2244314.7382314-.5430127.9626628-.9626628.2871862-.5369915.3883123-1.0606657.3883123-2.6177666v-1.0312583zm-.6054929-10c1.8777681 0 3.4 1.52223185 3.4 3.4s-1.5222319 3.4-3.4 3.4-3.4-1.52223185-3.4-3.4 1.5222319-3.4 3.4-3.4zm0 1.8c-.8836556 0-1.6.7163444-1.6 1.6s.7163444 1.6 1.6 1.6 1.6-.7163444 1.6-1.6-.7163444-1.6-1.6-1.6z" fill="#828a99"/></g></svg>