<svg height="24" viewBox="0 0 24 24" width="24" xmlns="http://www.w3.org/2000/svg"><g fill="none" fill-rule="evenodd" transform=""><path d="m0 0h24v24h-24z"/><path d="m16.304984 4.58632022c.9684135-.64559257 1.9494071-.47406533 2.7661348.34266239.7605264.76052641.9299596 1.68590662.396602 2.67640052-.0372725.06882663-.0372725.06882663-.0532706.09819906-.3295883.60514861-.3732613.81493856-.2471748 1.33367429.3091576.51207905.5132011.64336702 1.119096.76455341 1.1412747.22826881 1.7136538 1.04322411 1.7136538 2.19825151 0 1.0755468-.5345352 1.8496968-1.6121785 2.172976-.0413654.0123292-.0413654.0123292-.0663245.0197374-.024132.0071329-.024132.0071329-.0622683.01836-.6456591.1901556-.8177989.3034953-1.0961718.7616963-.1435537.5808573-.0921318.8179712.2506473 1.3321529.6455925.9684135.4740653 1.9494071-.3426624 2.7661348-.7605264.7605264-1.6859066.9299596-2.6764005.396602-.0688267-.0372725-.0688267-.0372725-.0981991-.0532706-.6051486-.3295883-.8149386-.3732613-1.3336743-.2471748-.512079.3091576-.643367.5132011-.7645534 1.119096-.2282689 1.1412747-1.0432241 1.7136538-2.1982515 1.7136538-1.0755468 0-1.8496968-.5345352-2.17297599-1.6121785-.01232925-.0413654-.01232925-.0413654-.01973743-.0663245-.00713288-.024132-.00713288-.024132-.01835997-.0622683-.1901556-.6456591-.30349534-.8177989-.76169636-1.0961718-.58085724-.1435537-.81797118-.0921318-1.3321529.2506473-.96841349.6455925-1.94940701.4740653-2.76613473-.3426624-.76052641-.7605264-.92995966-1.6859066-.39660199-2.6764005.03727249-.0688267.03727249-.0688267.05327053-.0981991.32958829-.6051486.37326129-.8149386.24717478-1.3336743-.30915753-.512079-.51320104-.643367-1.119096-.7645534-1.14127463-.2282689-1.71365373-1.0432241-1.71365373-2.1982515 0-1.0755468.53453523-1.8496968 1.61217851-2.17297599.04136533-.01232925.04136533-.01232925.06632447-.01973743.02413198-.00713288.02413198-.00713288.06226834-.01835997.64565905-.1901556.81779888-.30349534 1.09617181-.76169636.14355365-.58085724.09213178-.81797118-.25064732-1.3321529-.64559257-.96841349-.47406533-1.94940701.34266239-2.76613473.76052641-.76052641 1.68590662-.92995966 2.67640052-.39660199.06882663.03727249.06882663.03727249.09819906.05327053.60514861.32958829.81493856.37326129 1.33367429.24717478.51207905-.30915753.64336702-.51320104.76455341-1.119096.22826881-1.14127463 1.04322411-1.71365373 2.19825151-1.71365373 1.0755468 0 1.8496968.53453523 2.172976 1.61217851.0123292.04136533.0123292.04136533.0197374.06632447.0071329.02413198.0071329.02413198.01836.06226834.1901556.64565905.3034953.81779888.7616963 1.09617181.5808573.14355365.8179712.09213178 1.3321529-.25064732zm-4.738133-.51961232c-.2234405 1.11713438-.6613662 1.75435676-1.66435405 2.34583077-.114153.0673174-.23728591.11808567-.36571216.15078482-1.03148075.26262967-1.69145629.14913291-2.69416239-.39698119-.02911635-.01585825-.02911635-.01585825-.04516828-.02457839-.01674857-.00907488-.01674857-.00907488-.04598477-.02487519-.26622097-.1433536-.33389801-.13096222-.54969453.0848343-.24552655.24552655-.25352009.29124297-.11775235.49489976.63195569.94795764.77286747 1.70821671.48185254 2.83572298-.03306498.12810675-.08412242.25087974-.15164864.36465515-.54385396.91634339-1.08403254 1.30025549-2.16504871 1.61862979-.03789262.0111556-.03789262.0111556-.05919751.0174529-.02255223.0066934-.02255223.0066934-.06124991.0182249-.28961296.0868804-.32870583.1434973-.32870583.4486797 0 .3472269.02667411.3852056.26668349.4332104 1.11713438.2234405 1.75435676.6613661 2.34583077 1.664354.0673174.114153.11808567.2372859.15078482.3657122.26262967 1.0314808.14913291 1.6914563-.39698119 2.6941624-.01585825.0291163-.01585825.0291163-.02457839.0451683-.00907488.0167485-.00907488.0167485-.02487519.0459847-.1433536.266221-.13096222.3338981.0848343.5496946.24552655.2455265.29124297.2535201.49489976.1177523.94795764-.6319557 1.70821671-.7728674 2.83572298-.4818525.12810675.033065.25087974.0841224.36465515.1516486.91634339.543854 1.30025549 1.0840326 1.61862979 2.1650487.0111556.0378927.0111556.0378927.0174529.0591975.0066934.0225523.0066934.0225523.0182249.06125.0868804.2896129.1434973.3287058.4486797.3287058.3472269 0 .3852056-.0266741.4332104-.2666835.2234405-1.1171344.6613661-1.7543568 1.664354-2.3458308.114153-.0673174.2372859-.1180856.3657122-.1507848 1.0314808-.2626297 1.6914563-.1491329 2.6941624.3969812.0291163.0158582.0291163.0158582.0451683.0245784.0167485.0090749.0167485.0090749.0459847.0248752.266221.1433536.3338981.1309622.5496946-.0848343.2455265-.2455266.2535201-.291243.1177523-.4948998-.6319557-.9479576-.7728674-1.7082167-.4818525-2.835723.033065-.1281067.0841224-.2508797.1516486-.3646551.543854-.9163434 1.0840326-1.3002555 2.1650487-1.6186298.0378927-.0111556.0378927-.0111556.0591975-.0174529.0225523-.0066934.0225523-.0066934.06125-.0182249.2896129-.0868804.3287058-.1434973.3287058-.4486797 0-.3472269-.0266741-.3852056-.2666835-.4332104-1.1171344-.2234405-1.7543568-.6613662-2.3458308-1.66435405-.0673174-.114153-.1180856-.23728591-.1507848-.36571216-.2626297-1.03148075-.1491329-1.69145629.3969812-2.69416239.0158582-.02911635.0158582-.02911635.0245784-.04516828.0090749-.01674857.0090749-.01674857.0248752-.04598477.1433536-.26622097.1309622-.33389801-.0848343-.54969453-.2455266-.24552655-.291243-.25352009-.4948998-.11775235-.9479576.63195569-1.7082167.77286747-2.835723.48185254-.1281067-.03306498-.2508797-.08412242-.3646551-.15164864-.9163434-.54385396-1.3002555-1.08403254-1.6186298-2.16504871-.0111556-.03789262-.0111556-.03789262-.0174529-.05919751-.0066934-.02255223-.0066934-.02255223-.0182249-.06124991-.0868804-.28961296-.1434973-.32870583-.4486797-.32870583-.3472269 0-.3852056.02667411-.4332104.26668349zm.4331986 4.03334169c2.1539105 0 3.9 1.74608948 3.9 3.90000001 0 2.1539105-1.7460895 3.9-3.9 3.9-2.15391053 0-3.90000001-1.7460895-3.90000001-3.9 0-2.15391053 1.74608948-3.90000001 3.90000001-3.90000001zm0 1.8c-1.159798 0-2.10000001.94020201-2.10000001 2.10000001s.94020201 2.1 2.10000001 2.1 2.1-.940202 2.1-2.1-.940202-2.10000001-2.1-2.10000001z" fill="#828a99" fill-rule="nonzero" transform="matrix(-1 0 0 -1 24.00005 24.00005)"/></g></svg>