<svg height="24" viewBox="0 0 24 24" width="24" xmlns="http://www.w3.org/2000/svg"><g fill="none" fill-rule="evenodd" transform=""><path d="m0 0h24v24h-24z"/><path d="m15.5613624 7.61424573 4.1232765.40547982c1.8475418.18168582 2.4302769 2.10217885 1.0315542 3.29372465l-3.2381377 2.7585091 1.2135185 4.5365102c.4990238 1.8655064-1.2159241 3.0628192-2.7879244 1.9246694l-3.9032512-2.8260073-3.90325115 2.8260073c-1.57244697 1.1384732-3.28639451-.0612327-2.78792437-1.9246694l1.21351848-4.5365102-3.23813774-2.7585091c-1.40914217-1.200422-.81520471-3.11210235 1.03132179-3.29372216l4.12252005-.40548095 1.83210894-4.32967168c.7247928-1.71284293 2.7318017-1.72044928 3.4595816.00020126zm-8.51221969 11.45541287 4.71667809-3.4149396c.1399679-.1013387.3291871-.1013387.469155 0l4.7166781 3.4149396-1.4409425-5.386692c-.039877-.1490729.0095529-.307789.1270219-.4078587l3.9111968-3.33187559c.1977945-.16849744.216491-.1068801-.040452-.13214768l-4.9514802-.48692472c-.1458426-.01434204-.2721667-.10728843-.3292545-.24225786l-2.1554134-5.09592669c-.1064525-.2516798-.0374455-.25194133-.1440793.0000575l-2.1563512 5.09592669c-.05709907.13493751-.18340543.2278574-.3292229.24219965l-4.95055793.48692472c-.26344883.02591218-.24283707-.04042997-.0402521.13214839l3.91119679 3.33187559c.11746902.1000697.16689893.2587858.12702186.4078587z" fill="#828a99" fill-rule="nonzero"/></g></svg>