<svg height="24" viewBox="0 0 24 24" width="24" xmlns="http://www.w3.org/2000/svg"><g fill="none" fill-rule="evenodd" transform=""><path d="m0 0h24v24h-24z" opacity=".1"/><path d="m4.9 10.1h2.2c.49705627 0 .9.4029437.9.9s-.40294373.9-.9.9h-2.2v2.2c0 .4970563-.40294373.9-.9.9s-.9-.4029437-.9-.9v-2.2h-2.2c-.49705627 0-.9-.4029437-.9-.9s.40294373-.9.9-.9h2.2v-2.2c0-.49705627.40294373-.9.9-.9s.9.40294373.9.9zm13.9-2.1c0 2.0993063-1.7006937 3.8-3.8 3.8s-3.8-1.7006937-3.8-3.8c0-2.09930627 1.7006937-3.8 3.8-3.8s3.8 1.70069373 3.8 3.8zm-1.8 0c0-1.10519373-.8948063-2-2-2s-2 .89480627-2 2 .8948063 2 2 2 2-.89480627 2-2zm-8.9 10c0-2.9480015 3.1941793-4.9 6.9-4.9s6.9 1.9519985 6.9 4.9c0 1.8255446-.9455207 2.9-2.4 2.9h-9c-1.45447928 0-2.4-1.0744554-2.4-2.9zm1.8 0c0 .8790008.1944793 1.1.6 1.1h9c.4055207 0 .6-.2209992.6-1.1 0-1.7186651-2.2603662-3.1-5.1-3.1s-5.1 1.3813349-5.1 3.1z" fill="#828a99"/></g></svg>