<svg width="33" height="33" viewBox="0 0 33 33" fill="none" xmlns="http://www.w3.org/2000/svg">
<path d="M31.9688 27.8442H17.5312C16.962 27.8442 16.5 27.3822 16.5 26.813C16.5 26.2437 16.5 6.75724 16.5 6.18799C16.5 5.61874 16.962 5.15674 17.5312 5.15674H31.9688C32.538 5.15674 33 5.61874 33 6.18799V26.813C33 27.3822 32.538 27.8442 31.9688 27.8442Z" fill="#ECEFF1"/>
<path d="M21.6562 11.3442H17.5312C16.962 11.3442 16.5 10.8822 16.5 10.313C16.5 9.74374 16.962 9.28174 17.5312 9.28174H21.6562C22.2255 9.28174 22.6875 9.74374 22.6875 10.313C22.6875 10.8822 22.2255 11.3442 21.6562 11.3442Z" fill="#388E3C"/>
<path d="M21.6562 15.4692H17.5312C16.962 15.4692 16.5 15.0072 16.5 14.438C16.5 13.8687 16.962 13.4067 17.5312 13.4067H21.6562C22.2255 13.4067 22.6875 13.8687 22.6875 14.438C22.6875 15.0072 22.2255 15.4692 21.6562 15.4692Z" fill="#388E3C"/>
<path d="M21.6562 19.5942H17.5312C16.962 19.5942 16.5 19.1322 16.5 18.563C16.5 17.9937 16.962 17.5317 17.5312 17.5317H21.6562C22.2255 17.5317 22.6875 17.9937 22.6875 18.563C22.6875 19.1322 22.2255 19.5942 21.6562 19.5942Z" fill="#388E3C"/>
<path d="M21.6562 23.7192H17.5312C16.962 23.7192 16.5 23.2572 16.5 22.688C16.5 22.1187 16.962 21.6567 17.5312 21.6567H21.6562C22.2255 21.6567 22.6875 22.1187 22.6875 22.688C22.6875 23.2572 22.2255 23.7192 21.6562 23.7192Z" fill="#388E3C"/>
<path d="M27.8438 11.3442H25.7812C25.212 11.3442 24.75 10.8822 24.75 10.313C24.75 9.74374 25.212 9.28174 25.7812 9.28174H27.8438C28.413 9.28174 28.875 9.74374 28.875 10.313C28.875 10.8822 28.413 11.3442 27.8438 11.3442Z" fill="#388E3C"/>
<path d="M27.8438 15.4692H25.7812C25.212 15.4692 24.75 15.0072 24.75 14.438C24.75 13.8687 25.212 13.4067 25.7812 13.4067H27.8438C28.413 13.4067 28.875 13.8687 28.875 14.438C28.875 15.0072 28.413 15.4692 27.8438 15.4692Z" fill="#388E3C"/>
<path d="M27.8438 19.5942H25.7812C25.212 19.5942 24.75 19.1322 24.75 18.563C24.75 17.9937 25.212 17.5317 25.7812 17.5317H27.8438C28.413 17.5317 28.875 17.9937 28.875 18.563C28.875 19.1322 28.413 19.5942 27.8438 19.5942Z" fill="#388E3C"/>
<path d="M27.8438 23.7192H25.7812C25.212 23.7192 24.75 23.2572 24.75 22.688C24.75 22.1187 25.212 21.6567 25.7812 21.6567H27.8438C28.413 21.6567 28.875 22.1187 28.875 22.688C28.875 23.2572 28.413 23.7192 27.8438 23.7192Z" fill="#388E3C"/>
<path d="M18.1892 1.26934C17.9541 1.0734 17.6385 0.988839 17.3415 1.05071L0.8415 4.14446C0.352687 4.23521 0 4.66009 0 5.15715V27.8447C0 28.3397 0.352687 28.7666 0.8415 28.8573L17.3415 31.9511C17.4034 31.9635 17.4673 31.9697 17.5312 31.9697C17.7705 31.9697 18.0036 31.8872 18.1892 31.7325C18.4264 31.5365 18.5625 31.2437 18.5625 30.9384V2.0634C18.5625 1.75609 18.4264 1.46528 18.1892 1.26934Z" fill="#2E7D32"/>
<path d="M14.1818 19.9469L10.921 16.22L14.219 11.9795C14.5696 11.5298 14.4871 10.8822 14.0395 10.5316C13.592 10.181 12.9443 10.2635 12.5916 10.711L9.53708 14.638L6.96308 11.6969C6.58565 11.2638 5.9339 11.2246 5.50902 11.6C5.08002 11.9753 5.03671 12.6271 5.41208 13.054L8.24802 16.2963L5.3729 19.9923C5.02227 20.4419 5.10477 21.0895 5.55233 21.4401C5.74208 21.5866 5.9669 21.6567 6.18758 21.6567C6.4949 21.6567 6.79808 21.5206 7.00227 21.2586L9.63196 17.8762L12.6308 21.302C12.835 21.5371 13.1196 21.6567 13.4063 21.6567C13.6476 21.6567 13.889 21.5721 14.0849 21.401C14.5139 21.0256 14.5572 20.3738 14.1818 19.9469Z" fill="#FAFAFA"/>
</svg>
