<svg width="32" height="32" viewBox="0 0 32 32" fill="none" xmlns="http://www.w3.org/2000/svg">
<path d="M31 27H17C16.448 27 16 26.554 16 26C16 25.446 16 6.552 16 6C16 5.448 16.448 5 17 5H31C31.552 5 32 5.448 32 6V26C32 26.554 31.552 27 31 27Z" fill="#ECEFF1"/>
<path d="M27 11H17C16.448 11 16 10.554 16 10C16 9.446 16.448 9 17 9H27C27.552 9 28 9.448 28 10C28 10.552 27.552 11 27 11Z" fill="#1976D2"/>
<path d="M27 15H17C16.448 15 16 14.554 16 14C16 13.446 16.448 13 17 13H27C27.552 13 28 13.448 28 14C28 14.552 27.552 15 27 15Z" fill="#1976D2"/>
<path d="M27 19H17C16.448 19 16 18.554 16 18C16 17.446 16.448 17 17 17H27C27.552 17 28 17.448 28 18C28 18.552 27.552 19 27 19Z" fill="#1976D2"/>
<path d="M27 23H17C16.448 23 16 22.554 16 22C16 21.446 16.448 21 17 21H27C27.552 21 28 21.448 28 22C28 22.552 27.552 23 27 23Z" fill="#1976D2"/>
<path d="M17.638 1.23204C17.41 1.04004 17.104 0.960043 16.816 1.01804L0.816 4.01804C0.344 4.10604 0 4.52004 0 5.00004V27C0 27.48 0.342 27.894 0.816 27.982L16.816 30.982C16.878 30.994 16.938 31 17 31C17.232 31 17.458 30.92 17.638 30.77C17.868 30.58 18 30.298 18 30V2.00004C18 1.70204 17.868 1.42204 17.638 1.23204Z" fill="#1565C0"/>
<path d="M12.9942 21.1122C12.9422 21.5702 12.5822 21.9362 12.1242 21.9922C12.0822 21.9982 12.0422 22.0002 12.0002 22.0002C11.5882 22.0002 11.2122 21.7442 11.0642 21.3522L9.00015 15.8482L6.93615 21.3522C6.77615 21.7802 6.35615 22.0422 5.89215 21.9942C5.43815 21.9462 5.07415 21.5942 5.01015 21.1402L4.01015 14.1402C3.93215 13.5962 4.31215 13.0882 4.85815 13.0102C5.40615 12.9302 5.91215 13.3122 5.99015 13.8582L6.43615 16.9862L8.06215 12.6482C8.35415 11.8682 9.64215 11.8682 9.93615 12.6482L11.4682 16.7322L12.0062 11.8882C12.0682 11.3402 12.5761 10.9462 13.1102 11.0042C13.6602 11.0682 14.0542 11.5622 13.9942 12.1102L12.9942 21.1122Z" fill="#FAFAFA"/>
</svg>
