<svg width="14" height="12" viewBox="0 0 14 12" fill="none" xmlns="http://www.w3.org/2000/svg">
<g clip-path="url(#clip0)">
<path d="M10.1511 5.39062C10.44 5.39062 10.6742 5.18076 10.6742 4.92188C10.6742 4.66299 10.44 4.45312 10.1511 4.45312C9.86215 4.45312 9.62793 4.66299 9.62793 4.92188C9.62793 5.18076 9.86215 5.39062 10.1511 5.39062Z" fill="#828793"/>
<path d="M11.3546 0.9375H10.6745V0.46875C10.6745 0.209859 10.4403 0 10.1514 0C9.86244 0 9.62823 0.209859 9.62823 0.46875V0.9375H7.24792V0.46875C7.24792 0.209859 7.01371 0 6.72478 0C6.43584 0 6.20163 0.209859 6.20163 0.46875V0.9375H3.84748V0.46875C3.84748 0.209859 3.61327 0 3.32434 0C3.03541 0 2.80119 0.209859 2.80119 0.46875V0.9375H2.14726C0.993417 0.9375 0.0546875 1.77863 0.0546875 2.8125V10.125C0.0546875 11.1589 0.993417 12 2.14726 12H6.14932C6.43825 12 6.67246 11.7901 6.67246 11.5312C6.67246 11.2724 6.43825 11.0625 6.14932 11.0625H2.14726C1.57034 11.0625 1.10098 10.6419 1.10098 10.125V2.8125C1.10098 2.29556 1.57034 1.875 2.14726 1.875H2.80119V2.34375C2.80119 2.60264 3.03541 2.8125 3.32434 2.8125C3.61327 2.8125 3.84748 2.60264 3.84748 2.34375V1.875H6.20163V2.34375C6.20163 2.60264 6.43584 2.8125 6.72478 2.8125C7.01371 2.8125 7.24792 2.60264 7.24792 2.34375V1.875H9.62823V2.34375C9.62823 2.60264 9.86244 2.8125 10.1514 2.8125C10.4403 2.8125 10.6745 2.60264 10.6745 2.34375V1.875H11.3546C11.9315 1.875 12.4009 2.29556 12.4009 2.8125V5.48438C12.4009 5.74327 12.6351 5.95312 12.924 5.95312C13.213 5.95312 13.4472 5.74327 13.4472 5.48438V2.8125C13.4472 1.77863 12.5084 0.9375 11.3546 0.9375Z" fill="#828793"/>
<path d="M10.2822 6.32812C8.537 6.32812 7.11719 7.60031 7.11719 9.16406C7.11719 10.7278 8.537 12 10.2822 12C12.0274 12 13.4472 10.7278 13.4472 9.16406C13.4472 7.60031 12.0274 6.32812 10.2822 6.32812ZM10.2822 11.0625C9.11395 11.0625 8.16348 10.2109 8.16348 9.16406C8.16348 8.11725 9.11395 7.26562 10.2822 7.26562C11.4505 7.26562 12.4009 8.11725 12.4009 9.16406C12.4009 10.2109 11.4505 11.0625 10.2822 11.0625Z" fill="#828793"/>
<path d="M11.0405 8.69531H10.8051V8.20312C10.8051 7.94423 10.5709 7.73438 10.2819 7.73438C9.993 7.73438 9.75879 7.94423 9.75879 8.20312V9.16406C9.75879 9.42295 9.993 9.63281 10.2819 9.63281H11.0405C11.3294 9.63281 11.5636 9.42295 11.5636 9.16406C11.5636 8.90517 11.3294 8.69531 11.0405 8.69531Z" fill="#828793"/>
<path d="M7.87568 5.39062C8.16461 5.39062 8.39883 5.18076 8.39883 4.92188C8.39883 4.66299 8.16461 4.45312 7.87568 4.45312C7.58676 4.45312 7.35254 4.66299 7.35254 4.92188C7.35254 5.18076 7.58676 5.39062 7.87568 5.39062Z" fill="#828793"/>
<path d="M5.60029 7.42969C5.88922 7.42969 6.12344 7.21982 6.12344 6.96094C6.12344 6.70205 5.88922 6.49219 5.60029 6.49219C5.31137 6.49219 5.07715 6.70205 5.07715 6.96094C5.07715 7.21982 5.31137 7.42969 5.60029 7.42969Z" fill="#828793"/>
<path d="M3.32393 5.39062C3.61285 5.39062 3.84707 5.18076 3.84707 4.92188C3.84707 4.66299 3.61285 4.45312 3.32393 4.45312C3.035 4.45312 2.80078 4.66299 2.80078 4.92188C2.80078 5.18076 3.035 5.39062 3.32393 5.39062Z" fill="#828793"/>
<path d="M3.32393 7.42969C3.61285 7.42969 3.84707 7.21982 3.84707 6.96094C3.84707 6.70205 3.61285 6.49219 3.32393 6.49219C3.035 6.49219 2.80078 6.70205 2.80078 6.96094C2.80078 7.21982 3.035 7.42969 3.32393 7.42969Z" fill="#828793"/>
<path d="M3.32393 9.46875C3.61285 9.46875 3.84707 9.25888 3.84707 9C3.84707 8.74112 3.61285 8.53125 3.32393 8.53125C3.035 8.53125 2.80078 8.74112 2.80078 9C2.80078 9.25888 3.035 9.46875 3.32393 9.46875Z" fill="#828793"/>
<path d="M5.60029 9.46875C5.88922 9.46875 6.12344 9.25888 6.12344 9C6.12344 8.74112 5.88922 8.53125 5.60029 8.53125C5.31137 8.53125 5.07715 8.74112 5.07715 9C5.07715 9.25888 5.31137 9.46875 5.60029 9.46875Z" fill="#828793"/>
<path d="M5.60029 5.39062C5.88922 5.39062 6.12344 5.18076 6.12344 4.92188C6.12344 4.66299 5.88922 4.45312 5.60029 4.45312C5.31137 4.45312 5.07715 4.66299 5.07715 4.92188C5.07715 5.18076 5.31137 5.39062 5.60029 5.39062Z" fill="#828793"/>
</g>
<defs>
<clipPath id="clip0">
<rect x="0.0546875" width="13.3925" height="12" fill="white"/>
</clipPath>
</defs>
</svg>
