<svg width="12" height="20" viewBox="0 0 12 20" fill="none" xmlns="http://www.w3.org/2000/svg">
<path d="M0.444204 10.7804L9.34445 19.6805C9.5503 19.8865 9.8251 20 10.1181 20C10.4111 20 10.6859 19.8865 10.8918 19.6805L11.5472 19.0252C11.9737 18.5982 11.9737 17.9042 11.5472 17.4779L4.07344 10.0041L11.5555 2.52209C11.7613 2.31608 11.875 2.04145 11.875 1.7486C11.875 1.45543 11.7613 1.1808 11.5555 0.974625L10.9 0.319508C10.694 0.113495 10.4194 1.27252e-07 10.1264 1.52868e-07C9.83339 1.78483e-07 9.5586 0.113495 9.35274 0.319508L0.444204 9.22773C0.237865 9.4344 0.124533 9.71033 0.125183 10.0037C0.124533 10.2981 0.237865 10.5739 0.444204 10.7804Z" fill="#A6B2C2"/>
</svg>
