<svg width="10" height="6" viewBox="0 0 10 6" fill="none" xmlns="http://www.w3.org/2000/svg">
<path d="M5.3902 5.7779L9.84025 1.32777C9.94325 1.22485 10 1.08745 10 0.940948C10 0.794445 9.94325 0.657048 9.84025 0.554122L9.51261 0.226401C9.29911 0.0131509 8.95212 0.0131509 8.73895 0.226401L5.00207 3.96328L1.26105 0.222254C1.15804 0.119328 1.02072 0.0624996 0.874302 0.0624996C0.727717 0.0624996 0.590401 0.119328 0.487312 0.222254L0.159754 0.549975C0.0567474 0.652982 -3.18131e-08 0.790298 -3.82169e-08 0.936801C-4.46208e-08 1.0833 0.0567474 1.2207 0.159754 1.32363L4.61386 5.7779C4.7172 5.88107 4.85516 5.93773 5.00183 5.93741C5.14906 5.93773 5.28695 5.88107 5.3902 5.7779Z" fill="#828793"/>
</svg>
