<svg width="26" height="26" viewBox="0 0 26 26" fill="none" xmlns="http://www.w3.org/2000/svg">
<path d="M25.243 4.62129C25.2415 4.62129 25.2399 4.62109 25.2383 4.62109H18.332V3.85938C18.332 2.59937 17.3069 1.57422 16.0469 1.57422H9.95312C8.69312 1.57422 7.66797 2.59937 7.66797 3.85938V4.62109H0.761719C0.337616 4.62109 0 4.96863 0 5.38281V22.1406C0 23.4006 1.02515 24.4258 2.28516 24.4258H23.7148C24.9749 24.4258 26 23.4006 26 22.1406V5.39888C26 5.39789 26 5.3969 26 5.3959C25.9708 4.89563 25.6632 4.62407 25.243 4.62129ZM9.19141 3.85938C9.19141 3.43944 9.53319 3.09766 9.95312 3.09766H16.0469C16.4668 3.09766 16.8086 3.43944 16.8086 3.85938V4.62109H9.19141V3.85938ZM24.1814 6.14453L21.8159 13.2408C21.7122 13.5524 21.4218 13.7617 21.0935 13.7617H16.8086V13C16.8086 12.5793 16.4676 12.2383 16.0469 12.2383H9.95312C9.53239 12.2383 9.19141 12.5793 9.19141 13V13.7617H4.90654C4.57825 13.7617 4.28784 13.5524 4.1841 13.2408L1.8186 6.14453H24.1814ZM15.2852 13.7617V15.2852H10.7148V13.7617H15.2852ZM24.4766 22.1406C24.4766 22.5606 24.1348 22.9023 23.7148 22.9023H2.28516C1.86522 22.9023 1.52344 22.5606 1.52344 22.1406V10.0767L2.73882 13.7226C3.05025 14.6573 3.92146 15.2852 4.90654 15.2852H9.19141V16.0469C9.19141 16.4676 9.53239 16.8086 9.95312 16.8086H16.0469C16.4676 16.8086 16.8086 16.4676 16.8086 16.0469V15.2852H21.0935C22.0785 15.2852 22.9498 14.6573 23.2612 13.7226L24.4766 10.0767V22.1406Z" fill="white"/>
</svg>
