<svg width="26" height="26" viewBox="0 0 26 26" fill="none" xmlns="http://www.w3.org/2000/svg">
<g clip-path="url(#clip0)">
<path d="M13.8159 0H12.1841C10.8643 0 9.79057 1.07372 9.79057 2.39347V2.94551C9.22949 3.12477 8.68435 3.35106 8.16065 3.62207L7.76943 3.23085C6.8219 2.28216 5.3041 2.30999 4.3841 3.23121L3.2308 4.38445C2.30918 5.30507 2.28267 6.82236 3.23111 7.76978L3.62202 8.1607C3.351 8.68441 3.12477 9.22944 2.94546 9.79062H2.39347C1.07377 9.79062 0 10.8643 0 12.1841V13.8159C0 15.1357 1.07377 16.2094 2.39352 16.2094H2.94552C3.12482 16.7705 3.35105 17.3156 3.62207 17.8393L3.23086 18.2305C2.28297 19.1773 2.30913 20.6948 3.23116 21.6158L4.38455 22.7691C5.30669 23.6926 6.82414 23.7156 7.76984 22.7688L8.1607 22.378C8.68441 22.6489 9.22954 22.8752 9.79063 23.0545V23.6065C9.79063 24.9263 10.8643 26 12.1841 26H13.8159C15.1357 26 16.2094 24.9263 16.2094 23.6065V23.0545C16.7705 22.8752 17.3156 22.6489 17.8393 22.3779L18.2305 22.7691C19.178 23.7178 20.6958 23.69 21.6159 22.7688L22.7691 21.6155C23.6908 20.6949 23.7173 19.1776 22.7688 18.2302L22.3779 17.8393C22.6489 17.3156 22.8752 16.7706 23.0545 16.2094H23.6065C24.9262 16.2094 26 15.1357 26 13.8159V12.1841C26 10.8643 24.9262 9.79062 23.6065 9.79062H23.0545C22.8752 9.22949 22.6489 8.68441 22.3779 8.1607L22.7691 7.76948C23.717 6.82261 23.6909 5.30517 22.7688 4.38415L21.6154 3.2308C20.6933 2.3074 19.1759 2.28434 18.2302 3.23111L17.8393 3.62197C17.3156 3.351 16.7705 3.12472 16.2094 2.94542V2.39337C16.2094 1.07372 15.1357 0 13.8159 0ZM8.41532 5.22184C9.14286 4.79156 9.92591 4.46651 10.7427 4.25572C11.079 4.16894 11.3141 3.86557 11.3141 3.51818V2.39347C11.3141 1.91374 11.7044 1.52344 12.1841 1.52344H13.8159C14.2956 1.52344 14.686 1.91374 14.686 2.39347V3.51818C14.686 3.86557 14.921 4.16894 15.2574 4.25572C16.0741 4.46651 16.8572 4.79156 17.5847 5.22184C17.8841 5.39886 18.2652 5.35072 18.5111 5.10478L19.3078 4.30808C19.6513 3.96419 20.2029 3.97216 20.5379 4.30772L21.692 5.46178C22.0263 5.79561 22.0374 6.3473 21.6923 6.69195L20.8953 7.48897C20.6494 7.73485 20.6013 8.11601 20.7783 8.41532C21.2085 9.14281 21.5335 9.92586 21.7443 10.7427C21.8312 11.079 22.1345 11.314 22.4819 11.314H23.6065C24.0863 11.314 24.4766 11.7043 24.4766 12.184V13.8159C24.4766 14.2956 24.0863 14.6859 23.6065 14.6859H22.4819C22.1345 14.6859 21.8312 14.9209 21.7443 15.2572C21.5335 16.074 21.2085 16.8571 20.7783 17.5846C20.6013 17.8839 20.6494 18.2651 20.8953 18.5109L21.692 19.3076C22.0364 19.6516 22.0274 20.2031 21.6923 20.5378L20.5383 21.6918C20.2038 22.0268 19.6521 22.0366 19.3081 21.6921L18.5112 20.8951C18.2653 20.6492 17.884 20.601 17.5848 20.7781C16.8572 21.2083 16.0742 21.5334 15.2574 21.7442C14.9211 21.831 14.686 22.1343 14.686 22.4817V23.6065C14.686 24.0863 14.2957 24.4766 13.816 24.4766H12.1842C11.7045 24.4766 11.3141 24.0863 11.3141 23.6065V22.4818C11.3141 22.1344 11.0791 21.8311 10.7427 21.7443C9.92596 21.5335 9.14291 21.2084 8.41537 20.7782C8.11596 20.6012 7.73485 20.6493 7.48897 20.8952L6.69231 21.6919C6.34882 22.0358 5.79719 22.0278 5.46218 21.6923L4.30808 20.5382C3.97384 20.2044 3.96266 19.6528 4.30777 19.308L5.10479 18.511C5.35067 18.2652 5.39881 17.884 5.22184 17.5847C4.79157 16.8572 4.46657 16.0741 4.25577 15.2573C4.16894 14.921 3.86557 14.686 3.51823 14.686H2.39352C1.91379 14.6859 1.52344 14.2956 1.52344 13.8159V12.1841C1.52344 11.7044 1.91379 11.3141 2.39352 11.3141H3.51818C3.86557 11.3141 4.16889 11.079 4.25572 10.7427C4.46652 9.92591 4.79157 9.14286 5.22179 8.41537C5.39876 8.11606 5.35062 7.7349 5.10473 7.48902L4.30803 6.69231C3.96363 6.34832 3.97262 5.79683 4.30772 5.46213L5.46173 4.30813C5.79622 3.97318 6.34791 3.96338 6.6919 4.30782L7.48886 5.10484C7.67005 5.28597 8.047 5.43969 8.41532 5.22184Z" fill="white"/>
<path d="M13.0008 7.34316C9.88144 7.34316 7.34375 9.88091 7.34375 13.0002C7.34375 16.1195 9.88144 18.6572 13.0008 18.6572C16.1201 18.6572 18.6578 16.1195 18.6578 13.0002C18.6578 9.88091 16.1201 7.34316 13.0008 7.34316ZM13.0008 17.1338C10.7215 17.1338 8.86719 15.2795 8.86719 13.0002C8.86719 10.7209 10.7215 8.8666 13.0008 8.8666C15.28 8.8666 17.1344 10.7209 17.1344 13.0002C17.1344 15.2795 15.2801 17.1338 13.0008 17.1338Z" fill="white"/>
</g>
<defs>
<clipPath id="clip0">
<rect width="26" height="26" transform="matrix(1 0 0 -1 0 26)" fill="white"/>
</clipPath>
</defs>
</svg>
