<svg width="10" height="6" viewBox="0 0 10 6" fill="none" xmlns="http://www.w3.org/2000/svg">
<path d="M5.3902 5.7154L9.84025 1.26527C9.94325 1.16235 10 1.02495 10 0.878448C10 0.731945 9.94325 0.594548 9.84025 0.491622L9.51261 0.163901C9.29911 -0.0493491 8.95212 -0.0493491 8.73895 0.163901L5.00207 3.90078L1.26105 0.159754C1.15804 0.0568284 1.02072 -3.92497e-07 0.874302 -3.98897e-07C0.727717 -4.05304e-07 0.590401 0.0568284 0.487312 0.159754L0.159754 0.487475C0.0567474 0.590482 -3.18131e-08 0.727798 -3.82169e-08 0.874301C-4.46208e-08 1.0208 0.0567474 1.1582 0.159754 1.26113L4.61386 5.7154C4.7172 5.81857 4.85516 5.87523 5.00183 5.87491C5.14906 5.87523 5.28695 5.81857 5.3902 5.7154Z" fill="white"/>
</svg>
